<svg width="42" height="42" viewBox="0 0 42 42" fill="none" xmlns="http://www.w3.org/2000/svg">
<path d="M24.94 42H17.0614C16.5677 42.0001 16.0889 41.8364 15.7042 41.5362C15.3196 41.236 15.0523 40.8172 14.9467 40.3494L14.0658 36.393C12.8906 35.8934 11.7763 35.2687 10.7433 34.5303L6.76721 35.7588C6.29658 35.9044 5.78877 35.8895 5.32811 35.7164C4.86745 35.5434 4.48166 35.2226 4.2348 34.8075L0.286836 28.1904C0.042567 27.7749 -0.0491254 27.2912 0.0267601 26.8186C0.102646 26.3459 0.341616 25.9122 0.704575 25.5885L3.78892 22.8585C3.64866 21.6218 3.64866 20.374 3.78892 19.1373L0.704575 16.4136C0.341102 16.0897 0.101806 15.6557 0.0259086 15.1825C-0.0499893 14.7094 0.0420129 14.2253 0.286836 13.8096L4.22614 7.1883C4.473 6.77316 4.85879 6.45244 5.31945 6.27939C5.78011 6.10635 6.28792 6.09139 6.75855 6.237L10.7347 7.4655C11.2628 7.0875 11.8126 6.7347 12.3796 6.4155C12.9272 6.1173 13.49 5.8464 14.0658 5.6049L14.9489 1.6527C15.054 1.18482 15.3208 0.765844 15.705 0.465252C16.0892 0.164661 16.5678 0.000503928 17.0614 0H24.94C25.4335 0.000503928 25.9121 0.164661 26.2963 0.465252C26.6806 0.765844 26.9473 1.18482 27.0525 1.6527L27.9442 5.607C29.1179 6.10946 30.2319 6.73402 31.2667 7.4697L35.2449 6.2412C35.7153 6.09612 36.2226 6.11136 36.6828 6.28438C37.143 6.4574 37.5284 6.77781 37.7752 7.1925L41.7145 13.8138C42.2166 14.6685 42.0435 15.75 41.2968 16.4157L38.2124 19.1457C38.3527 20.3824 38.3527 21.6302 38.2124 22.8669L41.2968 25.5969C42.0435 26.2647 42.2166 27.3441 41.7145 28.1988L37.7752 34.8201C37.5283 35.2352 37.1425 35.556 36.6819 35.729C36.2212 35.9021 35.7134 35.917 35.2428 35.7714L31.2667 34.5429C30.2345 35.2807 29.1209 35.9048 27.9464 36.4035L27.0525 40.3494C26.9469 40.8169 26.6799 41.2354 26.2958 41.5356C25.9116 41.8357 25.4332 41.9996 24.94 42ZM20.992 12.6C18.6958 12.6 16.4937 13.485 14.87 15.0603C13.2463 16.6356 12.3342 18.7722 12.3342 21C12.3342 23.2278 13.2463 25.3644 14.87 26.9397C16.4937 28.515 18.6958 29.4 20.992 29.4C23.2882 29.4 25.4904 28.515 27.114 26.9397C28.7377 25.3644 29.6498 23.2278 29.6498 21C29.6498 18.7722 28.7377 16.6356 27.114 15.0603C25.4904 13.485 23.2882 12.6 20.992 12.6Z" fill="#1690B7"/>
</svg>
