<svg width="25" height="25" viewBox="0 0 25 25" fill="none" xmlns="http://www.w3.org/2000/svg">
<path d="M9.35006 15.645L7.79656 14.0916L0.642655 21.2439C-0.214218 22.1008 -0.214218 23.4941 0.642655 24.351C1.50192 25.2102 2.89121 25.2095 3.74969 24.351L10.9036 17.1986L9.35006 15.645Z" fill="#55ADEE"/>
<path d="M3.74962 24.351L10.9035 17.1986L9.35003 15.6451L0.642578 24.351C1.50189 25.2102 2.89118 25.2094 3.74962 24.351Z" fill="#4B9DD9"/>
<path d="M15.4783 19.0336C20.7343 19.0336 24.9951 14.7728 24.9951 9.51681C24.9951 4.26082 20.7343 0 15.4783 0C10.2223 0 5.96149 4.26082 5.96149 9.51681C5.96149 14.7728 10.2223 19.0336 15.4783 19.0336Z" fill="#4B545E"/>
<path d="M22.2078 16.2462C25.932 12.522 25.9297 6.50938 22.2078 2.78741L8.74896 16.2462C12.4732 19.9704 18.4858 19.9682 22.2078 16.2462Z" fill="#5E6770"/>
<path d="M15.4783 17.5696C19.9257 17.5696 23.5311 13.9642 23.5311 9.51682C23.5311 5.0694 19.9257 1.46405 15.4783 1.46405C11.0309 1.46405 7.42554 5.0694 7.42554 9.51682C7.42554 13.9642 11.0309 17.5696 15.4783 17.5696Z" fill="#F2F2F2"/>
<path d="M21.1725 15.211C24.3217 12.0617 24.3237 6.97381 21.1725 3.82263L9.78418 15.211C12.9334 18.3602 18.0213 18.3622 21.1725 15.211Z" fill="#DAEDFF"/>
<path d="M19.1403 13.1789H16.9431L15.4783 12.1886V8.78442H19.1403C19.5448 8.78442 19.8727 9.11235 19.8727 9.51684V12.4465C19.8727 12.851 19.5448 13.1789 19.1403 13.1789Z" fill="#F2B73F"/>
<path d="M11.8163 7.31958C11.4118 7.31958 11.0839 7.64751 11.0839 8.05199V12.4465C11.0839 12.8509 11.4118 13.1789 11.8163 13.1789H14.0135L15.4783 12.1576V9.51681V7.31958H11.8163Z" fill="#1FCEFC"/>
<path d="M15.4784 12.1576V9.51685L11.8163 13.1789H14.0135L15.4784 12.1576Z" fill="#4B97F7"/>
<path d="M16.2107 4.38995H14.7458C14.3414 4.38995 14.0134 4.71788 14.0134 5.12237V10.9817V13.1789H16.9431V8.05201V5.12237C16.9431 4.71788 16.6151 4.38995 16.2107 4.38995Z" fill="#4B9DD9"/>
<path d="M16.9431 13.1789V8.052L14.0134 10.9816V13.1789H16.9431Z" fill="#FF495A"/>
</svg>
