<svg width="24" height="25" viewBox="0 0 24 25" fill="none" xmlns="http://www.w3.org/2000/svg">
<path d="M19.7982 3.01933C19.7982 2.73366 19.5645 2.5 19.2789 2.5H4.52867C4.243 2.5 4.00934 2.73368 4.00934 3.01933V20.3664V20.4443C3.98344 20.5742 4.00934 20.73 4.11314 20.8599L5.33367 22.4181C5.43746 22.548 5.59343 22.6258 5.74921 22.6258C5.90499 22.6258 6.06078 22.548 6.16475 22.4181L6.99584 21.3794L7.82693 22.4181C7.93073 22.548 8.08669 22.6258 8.24247 22.6258C8.39825 22.6258 8.55404 22.548 8.65801 22.4181L9.4891 21.3794L10.3202 22.4181C10.528 22.6778 10.9435 22.6778 11.1252 22.4181L11.9563 21.3794L12.7874 22.4181C12.9951 22.6778 13.4107 22.6778 13.5923 22.4181L14.4234 21.3794L15.2545 22.4181C15.3583 22.548 15.5143 22.6258 15.6701 22.6258C15.8258 22.6258 15.9816 22.548 16.0856 22.4181L16.9167 21.3794L17.7478 22.4181C17.9556 22.6778 18.3711 22.6778 18.5528 22.4181L19.7733 20.8599C19.8771 20.73 19.9032 20.6001 19.8771 20.4443V20.3664L19.8762 3.01933H19.7982ZM18.0324 21.2494L17.2014 20.2107C16.9936 19.9509 16.5781 19.9509 16.3964 20.2107L15.5653 21.2494L14.7605 20.2107C14.5527 19.9509 14.1372 19.9509 13.9555 20.2107L13.1244 21.2494L12.2933 20.2107C12.0855 19.9509 11.67 19.9509 11.4883 20.2107L10.6572 21.2494L9.82615 20.2107C9.61837 19.9509 9.20285 19.9509 9.02116 20.2107L8.19007 21.2494L7.35898 20.2107C7.25518 20.0808 7.09922 20.0029 6.94344 20.0029C6.78766 20.0029 6.63187 20.0808 6.5279 20.2107L5.69681 21.2494L4.9956 20.3404L4.99615 3.53861H18.6817V20.3663L18.0324 21.2494Z" fill="white"/>
<path d="M15.2796 13.0693H8.52775C8.24209 13.0693 8.00842 13.303 8.00842 13.5887C8.00842 13.8743 8.2421 14.108 8.52775 14.108H15.2796C15.5653 14.108 15.7989 13.8743 15.7989 13.5887C15.7989 13.303 15.5653 13.0693 15.2796 13.0693Z" fill="white"/>
<path d="M15.2796 16.1594H8.52775C8.24209 16.1594 8.00842 16.3931 8.00842 16.6788C8.00842 16.9644 8.2421 17.1981 8.52775 17.1981H15.2796C15.5653 17.1981 15.7989 16.9644 15.7989 16.6788C15.7989 16.3933 15.5653 16.1594 15.2796 16.1594Z" fill="white"/>
<path d="M15.2796 6.94067H8.52775C8.24209 6.94067 8.00842 7.17435 8.00842 7.46C8.00842 7.74565 8.2421 7.97933 8.52775 7.97933H15.2796C15.5653 7.97933 15.7989 7.74565 15.7989 7.46C15.7989 7.17435 15.5653 6.94067 15.2796 6.94067Z" fill="white"/>
<path d="M15.2796 10.0051H8.52775C8.24209 10.0051 8.00842 10.2388 8.00842 10.5245C8.00842 10.8101 8.2421 11.0438 8.52775 11.0438H15.2796C15.5653 11.0438 15.7989 10.8101 15.7989 10.5245C15.7989 10.2388 15.5653 10.0051 15.2796 10.0051Z" fill="white"/>
</svg>
