<svg width="52" height="38" viewBox="0 0 52 38" fill="none" xmlns="http://www.w3.org/2000/svg">
<path d="M34.4792 19.0025C33.1238 19.0025 31.8485 18.2525 31.1588 17.0525L26.0017 8.16946L20.8526 17.0525C20.1549 18.2609 18.8796 19.0108 17.5242 19.0108C17.1633 19.0108 16.8024 18.9608 16.4575 18.8525L5.46966 15.5859V30.4189C5.46966 31.6438 6.27169 32.7105 7.41058 33.0021L24.7505 37.5103C25.5686 37.7187 26.4268 37.7187 27.2368 37.5103L44.5928 33.0021C45.7317 32.7021 46.5337 31.6355 46.5337 30.4189V15.5859L35.5459 18.8442C35.201 18.9525 34.8401 19.0025 34.4792 19.0025ZM51.5304 9.65275L47.3999 1.08631C47.1513 0.569659 46.6139 0.269667 46.0605 0.344665L26.0017 3.00293L33.3563 15.6776C33.6611 16.2026 34.2707 16.4526 34.8401 16.2859L50.7123 11.5777C51.5063 11.336 51.8913 10.4194 51.5304 9.65275ZM4.60346 1.08631L0.472992 9.65275C0.104057 10.4194 0.497053 11.336 1.28305 11.5694L17.1553 16.2776C17.7247 16.4442 18.3343 16.1942 18.639 15.6693L26.0017 3.00293L5.93484 0.344665C5.38143 0.278 4.85209 0.569659 4.60346 1.08631Z" fill="#15A5F7"/>
</svg>
