<svg width="49" height="39" viewBox="0 0 49 39" fill="none" xmlns="http://www.w3.org/2000/svg">
<path d="M47.775 26.8125H46.55V18.5783C46.55 17.6109 46.1595 16.6816 45.4705 15.9961L37.8219 8.38652C37.1328 7.70098 36.1987 7.3125 35.2264 7.3125H31.85V3.65625C31.85 1.6377 30.2039 0 28.175 0H8.575C6.54609 0 4.9 1.6377 4.9 3.65625V7.3125H0.6125C0.275625 7.3125 0 7.58672 0 7.92188V9.14062C0 9.47578 0.275625 9.75 0.6125 9.75H21.4375C21.7744 9.75 22.05 10.0242 22.05 10.3594V11.5781C22.05 11.9133 21.7744 12.1875 21.4375 12.1875H3.0625C2.72563 12.1875 2.45 12.4617 2.45 12.7969V14.0156C2.45 14.3508 2.72563 14.625 3.0625 14.625H18.9875C19.3244 14.625 19.6 14.8992 19.6 15.2344V16.4531C19.6 16.7883 19.3244 17.0625 18.9875 17.0625H0.6125C0.275625 17.0625 0 17.3367 0 17.6719V18.8906C0 19.2258 0.275625 19.5 0.6125 19.5H16.5375C16.8744 19.5 17.15 19.7742 17.15 20.1094V21.3281C17.15 21.6633 16.8744 21.9375 16.5375 21.9375H4.9V31.6875C4.9 35.7246 8.19219 39 12.25 39C16.3078 39 19.6 35.7246 19.6 31.6875H29.4C29.4 35.7246 32.6922 39 36.75 39C40.8078 39 44.1 35.7246 44.1 31.6875H47.775C48.4487 31.6875 49 31.1391 49 30.4688V28.0312C49 27.3609 48.4487 26.8125 47.775 26.8125ZM12.25 35.3438C10.2211 35.3438 8.575 33.7061 8.575 31.6875C8.575 29.6689 10.2211 28.0312 12.25 28.0312C14.2789 28.0312 15.925 29.6689 15.925 31.6875C15.925 33.7061 14.2789 35.3438 12.25 35.3438ZM36.75 35.3438C34.7211 35.3438 33.075 33.7061 33.075 31.6875C33.075 29.6689 34.7211 28.0312 36.75 28.0312C38.7789 28.0312 40.425 29.6689 40.425 31.6875C40.425 33.7061 38.7789 35.3438 36.75 35.3438ZM42.875 19.5H31.85V10.9688H35.2264L42.875 18.5783V19.5Z" fill="#15A5F6"/>
</svg>
