<svg width="24" height="25" viewBox="0 0 24 25" fill="none" xmlns="http://www.w3.org/2000/svg">
<path d="M20.0297 7.26406L14.9859 2.22031C14.8453 2.07969 14.6555 2 14.4562 2H4.5C4.08516 2 3.75 2.33516 3.75 2.75V22.25C3.75 22.6648 4.08516 23 4.5 23H19.5C19.9148 23 20.25 22.6648 20.25 22.25V7.79609C20.25 7.59687 20.1703 7.40469 20.0297 7.26406ZM18.5203 8.14062H14.1094V3.72969L18.5203 8.14062ZM18.5625 21.3125H5.4375V3.6875H12.5156V8.75C12.5156 9.01107 12.6193 9.26145 12.8039 9.44606C12.9885 9.63066 13.2389 9.73438 13.5 9.73438H18.5625V21.3125Z" fill="white"/>
<path d="M12.5779 12.2069L14.9656 14.6488C15.2784 14.9688 15.2784 15.4859 14.9656 15.8057C14.6527 16.1257 14.1471 16.1257 13.8344 15.8057L12.7999 14.7477L12.7999 17.6819C12.7999 18.1335 12.4415 18.5 12 18.5C11.5584 18.5 11.2 18.1335 11.2 17.6819L11.2 14.7477L10.1656 15.8057C9.85271 16.1257 9.34714 16.1257 9.03442 15.8057C8.72156 15.4857 8.72156 14.9687 9.03442 14.6488L11.4221 12.2069C11.5677 12.0513 11.7729 11.9546 12 11.9546C12.2271 11.9546 12.4323 12.0513 12.5779 12.2069Z" fill="white"/>
</svg>
