<svg width="24" height="25" viewBox="0 0 24 25" fill="none" xmlns="http://www.w3.org/2000/svg">
<path d="M20.0297 7.26406L14.9859 2.22031C14.8453 2.07969 14.6555 2 14.4562 2H4.5C4.08516 2 3.75 2.33516 3.75 2.75V22.25C3.75 22.6648 4.08516 23 4.5 23H19.5C19.9148 23 20.25 22.6648 20.25 22.25V7.79609C20.25 7.59687 20.1703 7.40469 20.0297 7.26406ZM18.5203 8.14062H14.1094V3.72969L18.5203 8.14062ZM18.5625 21.3125H5.4375V3.6875H12.5156V8.75C12.5156 9.01107 12.6193 9.26145 12.8039 9.44606C12.9885 9.63066 13.2389 9.73438 13.5 9.73438H18.5625V21.3125Z" fill="white"/>
<path d="M7.77854 14.9718C8.28983 14.3779 8.9929 14.3779 9.48294 14.9718C9.94094 15.5225 10.7292 15.5334 11.2086 14.9718C11.7092 14.3779 12.4016 14.3779 12.913 14.9718C13.3817 15.5225 14.1806 15.5117 14.628 14.9718C15.1393 14.3779 15.8317 14.3779 16.3324 14.9718C16.4921 15.1554 16.7691 15.177 16.9608 15.015C17.1419 14.853 17.1632 14.5722 17.0034 14.3779C16.5774 13.8811 16.0447 13.6112 15.4802 13.6112C14.9156 13.6112 14.3724 13.8811 13.957 14.3779C13.8184 14.5507 13.6374 14.4427 13.5841 14.3779C13.158 13.8811 12.6254 13.6112 12.0609 13.6112C11.4963 13.6112 10.9531 13.8811 10.5376 14.3779C10.4737 14.4535 10.3033 14.5507 10.1541 14.3779C9.73871 13.8811 9.19548 13.6112 8.63092 13.6112C8.06635 13.6112 7.53374 13.8811 7.10769 14.3779C6.94793 14.5614 6.96919 14.853 7.15026 15.015C7.34189 15.177 7.61883 15.1554 7.77857 14.9718H7.77854Z" fill="white"/>
<path d="M7.77854 12.8606C8.28983 12.2667 8.9929 12.2667 9.48294 12.8606C9.94094 13.4113 10.7292 13.4221 11.2086 12.8606C11.7092 12.2667 12.4016 12.2667 12.913 12.8606C13.3817 13.4113 14.1806 13.4005 14.628 12.8606C15.1393 12.2667 15.8317 12.2667 16.3324 12.8606C16.4921 13.0442 16.7691 13.0658 16.9608 12.9038C17.1419 12.7418 17.1632 12.461 17.0034 12.2667C16.5774 11.7699 16.0447 11.4999 15.4802 11.4999C14.9156 11.4999 14.3724 11.7699 13.957 12.2667C13.8398 12.4071 13.7013 12.4071 13.5841 12.2667C13.158 11.7699 12.6254 11.4999 12.0609 11.4999C11.4963 11.4999 10.9531 11.7699 10.5376 12.2667C10.4098 12.4179 10.282 12.4179 10.1541 12.2667C9.73871 11.7699 9.19548 11.4999 8.63092 11.4999C8.06635 11.4999 7.53374 11.7699 7.10769 12.2667C6.94793 12.4502 6.96919 12.7418 7.15026 12.9038C7.34189 13.0658 7.61883 13.0442 7.77857 12.8606H7.77854Z" fill="white"/>
<path d="M15.4891 15.7222C14.9239 15.7222 14.3801 15.9934 13.9643 16.4925C13.847 16.6335 13.7083 16.6335 13.591 16.4925C13.1645 15.9934 12.6313 15.7222 12.0662 15.7222C11.501 15.7222 10.9572 15.9934 10.5413 16.4925C10.4134 16.6444 10.2854 16.6444 10.1575 16.4925C9.74158 15.9934 9.19779 15.7222 8.63263 15.7222C8.06747 15.7222 7.5343 15.9934 7.1078 16.4925C6.94788 16.6769 6.96915 16.9698 7.15042 17.1325C7.33169 17.2952 7.61963 17.2736 7.77954 17.0892C8.29137 16.4925 8.99517 16.4925 9.48572 17.0892C9.93344 17.6315 10.7225 17.6424 11.2024 17.0891C11.7036 16.4924 12.3967 16.4924 12.9086 17.0891C13.3778 17.6423 14.1775 17.6315 14.6254 17.0891C15.1372 16.4924 15.8304 16.4924 16.3316 17.0891C16.4915 17.2735 16.7688 17.2952 16.9607 17.1324C17.1419 16.9698 17.1633 16.6876 17.0033 16.4924C16.5874 15.9934 16.0436 15.7222 15.4891 15.7222Z" fill="white"/>
</svg>
