<svg width="19" height="17" viewBox="0 0 19 17" fill="none" xmlns="http://www.w3.org/2000/svg">
<path d="M0.802952 9.51651H2.73033V15.9215C2.73033 16.0785 2.86618 16.2058 3.03378 16.2058H5.07445V10.3355C5.07445 10.1784 5.2103 10.051 5.37776 10.051H8.32045C8.48805 10.051 8.6239 10.1784 8.6239 10.3355V16.2058H15.9676C16.1351 16.2058 16.2709 16.0785 16.2709 15.9215V9.51651H18.1963C18.3192 9.51585 18.4299 9.44641 18.4775 9.34008C18.5238 9.23387 18.4974 9.11206 18.4106 9.03112L9.71401 0.878053H9.71415C9.65744 0.824357 9.58027 0.794067 9.49971 0.794067C9.41916 0.794067 9.34199 0.824355 9.28528 0.878053L0.588676 9.03112H0.588817C0.50149 9.1118 0.475815 9.2344 0.524062 9.34008C0.570192 9.44668 0.680514 9.51637 0.803112 9.51651H0.802952ZM10.1569 10.3356C10.1569 10.1784 10.2927 10.0511 10.4603 10.0511H13.6235H13.6234C13.791 10.0511 13.9268 10.1784 13.9268 10.3356V13.3011V13.3009C13.9268 13.4581 13.791 13.5854 13.6234 13.5854H10.46C10.2926 13.5854 10.1567 13.4581 10.1567 13.3009L10.1569 10.3356Z" fill="white"/>
</svg>
