<svg width="21" height="18" viewBox="0 0 21 18" fill="none" xmlns="http://www.w3.org/2000/svg">
<path fill-rule="evenodd" clip-rule="evenodd" d="M10.831 3.29217C11.6722 1.6368 13.4002 0.5 15.3936 0.5C16.3532 0.5 17.2508 0.763565 18.0184 1.22111L16.9654 2.26652C16.4887 2.042 15.9558 1.91663 15.3936 1.91663C13.6991 1.91663 12.2699 3.05707 11.8441 4.60619V4.70881H11.8176C11.7498 4.98502 11.7141 5.2734 11.7141 5.5694C11.7141 7.58529 13.3629 9.22232 15.3937 9.22232C17.4242 9.22232 19.073 7.58529 19.073 5.5694C19.073 5.13951 18.998 4.7273 18.8604 4.34408L15.9522 7.23193C15.6733 7.50894 15.2216 7.50894 14.9426 7.23193L12.9856 5.28894C12.7072 5.0121 12.7072 4.5637 12.9856 4.28668C13.2639 4.01047 13.7162 4.01047 13.9944 4.28668L15.4472 5.72956L19.2492 1.95488C19.5276 1.67867 19.9799 1.67867 20.2581 1.95488C20.5363 2.23189 20.5363 2.68013 20.2581 2.95714L19.9442 3.26877C20.2995 3.95937 20.5 4.7414 20.5 5.56941C20.5 8.09249 18.6392 10.1877 16.2069 10.5746V15.375C16.2069 16.5487 15.2486 17.5 14.0664 17.5H2.64046C1.45827 17.5 0.5 16.5487 0.5 15.375V5.41722C0.5 4.85339 0.72551 4.313 1.12717 3.91488C1.52819 3.51613 2.07256 3.29225 2.64046 3.29225L10.831 3.29217ZM4.048 4.70882H2.64093C2.45188 4.70882 2.26985 4.78328 2.13655 4.91641C2.0023 5.04891 1.92744 5.22947 1.92744 5.41714V15.3749C1.92744 15.766 2.24708 16.0833 2.64093 16.0833H14.0669C14.4614 16.0833 14.7804 15.766 14.7804 15.3749V10.6029C13.9947 10.5094 13.2642 10.2381 12.6299 9.83161V11.7738C12.6299 12.0337 12.4857 12.2731 12.2553 12.397C12.0249 12.5204 11.7438 12.5082 11.5246 12.3659L8.33892 10.2891L5.15323 12.3659C4.93345 12.5082 4.65314 12.5204 4.42271 12.397C4.19146 12.2731 4.04813 12.0337 4.04813 11.7738L4.048 4.70882ZM10.3609 4.70882H5.47497V10.4612L7.94717 8.8498C8.18479 8.69469 8.49215 8.69469 8.73058 8.8498L11.2028 10.4612V8.46447C10.6262 7.64358 10.2874 6.64545 10.2874 5.56953C10.2874 5.2764 10.3124 4.98879 10.3609 4.70894L10.3609 4.70882Z" fill="white"/>
</svg>
