<svg width="25" height="25" viewBox="0 0 25 25" fill="none" xmlns="http://www.w3.org/2000/svg">
<path d="M24.5694 12.9311H21.5521V9.48279C21.5521 9.00666 21.1661 8.62073 20.6901 8.62073H0.431421C0.193384 8.62073 0.000366211 8.8137 0.000366211 9.05178V25H20.565C20.7473 24.9993 20.9103 24.8862 20.9745 24.7155L24.9745 13.5087C25.0214 13.3766 25.0014 13.23 24.921 13.1153C24.8405 13.0006 24.7095 12.9319 24.5694 12.9311Z" fill="#F2B73F"/>
<path d="M21.5522 9.05166V12.931H4.31079V8.62061H21.1211C21.3589 8.62134 21.5515 8.81392 21.5522 9.05166Z" fill="#D25627"/>
<path d="M4.31072 8.62158V12.9319L2.07795 13.3026C1.87385 13.3382 1.67376 13.2218 1.60383 13.0268L0.000366211 8.62158H4.31072Z" fill="#D25627"/>
<path d="M4.31072 12.9311L0.000366211 25V8.62073L1.60383 13.0259C1.67376 13.2209 1.87385 13.3373 2.07795 13.3018L4.31072 12.9311Z" fill="#E57E25"/>
<path d="M9.48306 17.2414C10.1972 17.2414 10.7762 16.6624 10.7762 15.9483C10.7762 15.2341 10.1972 14.6552 9.48306 14.6552C8.76889 14.6552 8.18994 15.2341 8.18994 15.9483C8.18994 16.6624 8.76889 17.2414 9.48306 17.2414Z" fill="#D25627"/>
<path d="M17.2417 17.2414C17.9558 17.2414 18.5348 16.6624 18.5348 15.9483C18.5348 15.2341 17.9558 14.6552 17.2417 14.6552C16.5275 14.6552 15.9485 15.2341 15.9485 15.9483C15.9485 16.6624 16.5275 17.2414 17.2417 17.2414Z" fill="#D25627"/>
<path d="M15.5176 12.9311H4.31073V0.431055C4.31141 0.193262 4.50399 0.000683594 4.74178 0H15.0866C15.3244 0.000683594 15.5169 0.193262 15.5177 0.431055V12.9311H15.5176Z" fill="#0A44A7"/>
<path d="M17.6728 3.87927V2.58621C17.6728 2.34817 17.4799 2.15515 17.2418 2.15515H6.897C6.65896 2.15515 6.46594 2.34812 6.46594 2.58621V12.931H17.6728V3.87927Z" fill="#4B9DD9"/>
<path d="M8.62103 12.9311V4.74136C8.62172 4.50361 8.81429 4.31104 9.05209 4.3103H19.3969C19.6347 4.31099 19.8272 4.50356 19.828 4.74136V12.931H8.62103V12.9311Z" fill="#0A44A7"/>
<path d="M14.2246 12.931C16.129 12.931 17.6729 11.3872 17.6729 9.48271C17.6729 7.57828 16.129 6.03442 14.2246 6.03442C12.3202 6.03442 10.7763 7.57828 10.7763 9.48271C10.7763 11.3872 12.3202 12.931 14.2246 12.931Z" fill="#4B9DD9"/>
<path d="M14.293 10.5862C15.0072 10.5862 15.5861 10.0073 15.5861 9.29312C15.5861 8.57895 15.0072 8 14.293 8C13.5788 8 12.9999 8.57895 12.9999 9.29312C12.9999 10.0073 13.5788 10.5862 14.293 10.5862Z" fill="white"/>
<path d="M16.3798 19.8276H10.3452C9.63142 19.8268 9.05291 19.2483 9.05212 18.5345V16.3793C9.05212 16.1413 9.24509 15.9482 9.48318 15.9482C9.72127 15.9482 9.91423 16.1412 9.91423 16.3793V18.5345C9.91448 18.7724 10.1073 18.9653 10.3453 18.9655H16.3798C16.6177 18.9653 16.8106 18.7725 16.8108 18.5345V16.3793C16.8108 16.1413 17.0038 15.9482 17.2419 15.9482C17.48 15.9482 17.6729 16.1412 17.6729 16.3793V18.5345C17.6721 19.2483 17.0936 19.8268 16.3798 19.8276Z" fill="#E57E25"/>
</svg>
