<svg width="25" height="26" viewBox="0 0 25 26" fill="none" xmlns="http://www.w3.org/2000/svg">
<path d="M9.57031 23.3594V24.2227C9.57031 25.2027 10.337 26 11.2793 26H13.7207C14.663 26 15.4297 25.2027 15.4297 24.2227V23.3594L12.5 22.9704L9.57031 23.3594Z" fill="#55696E"/>
<path d="M15.4297 23.3594V24.2227C15.4297 25.2027 14.6631 26 13.7207 26H12.5V22.9704L15.4297 23.3594Z" fill="#5E6770"/>
<path d="M15.918 23.4104C16.3224 23.4104 16.6504 23.0694 16.6504 22.6487V18.2195L12.5 17.7115L8.34961 18.2193V22.6487C8.34961 23.0694 8.67754 23.4104 9.08203 23.4104H15.918Z" fill="#E8E1DE"/>
<path d="M16.6504 18.2195V22.6487C16.6504 23.0691 16.3223 23.4104 15.918 23.4104H12.5V17.7117L16.6504 18.2195Z" fill="#A5AAAE"/>
<path d="M16.6504 18.2194C18.9288 16.735 20.3318 14.119 20.3318 11.3125C20.3318 6.8214 16.8184 3.16754 12.5 3.16754C8.18154 3.16754 4.66821 6.8214 4.66821 11.3126C4.66821 14.1272 6.06909 16.7348 8.34961 18.2192L16.6504 18.2194Z" fill="#F2B73F"/>
<path d="M20.3315 11.3128C20.3315 14.1189 18.9287 16.7352 16.6504 18.2195H12.5V3.16748C16.8184 3.16748 20.3315 6.82118 20.3315 11.3128Z" fill="#F19637"/>
<path d="M16.1621 10.7151H12.5V9.54712C12.5 9.12645 12.1721 8.7854 11.7676 8.7854H8.83789C8.4334 8.7854 8.10547 9.12645 8.10547 9.54712V13.3557C8.10547 13.7764 8.4334 14.1174 8.83789 14.1174H11.7676C12.1721 14.1174 12.5 13.7764 12.5 13.3557V12.2385H13.2324V13.0002C13.2324 13.4209 13.5603 13.762 13.9648 13.762C14.3693 13.762 14.6973 13.4209 14.6973 13.0002V12.2385H15.4297V13.0002C15.4297 13.4209 15.7576 13.762 16.1621 13.762C16.5666 13.762 16.8945 13.4209 16.8945 13.0002V11.4768C16.8945 11.0561 16.5666 10.7151 16.1621 10.7151ZM11.0352 12.594H9.57031V10.3088H11.0352V12.594Z" fill="#FEDD33"/>
<path d="M16.1621 10.7151H12.5V12.2385H13.2324V13.0002C13.2324 13.4207 13.5605 13.762 13.9648 13.762C14.3691 13.762 14.6973 13.4207 14.6973 13.0002V12.2385H15.4297V13.0002C15.4297 13.4207 15.7578 13.762 16.1621 13.762C16.5664 13.762 16.8945 13.4207 16.8945 13.0002V11.4768C16.8945 11.0563 16.5664 10.7151 16.1621 10.7151Z" fill="#F2B73F"/>
<path d="M2.34375 10.5989H0.732421C0.327929 10.5989 0 10.9399 0 11.3606C0 11.7813 0.327929 12.1223 0.732421 12.1223H2.34375C2.74824 12.1223 3.07617 11.7813 3.07617 11.3606C3.07617 10.9399 2.74824 10.5989 2.34375 10.5989Z" fill="#F2B73F"/>
<path d="M4.07088 5.41962L2.67542 4.58172C2.32508 4.37129 1.87714 4.49616 1.67494 4.86052C1.47264 5.22482 1.59266 5.69069 1.943 5.90103L3.33846 6.73893C3.68724 6.9484 4.13582 6.82602 4.33895 6.46014C4.54124 6.09583 4.42122 5.62996 4.07088 5.41962Z" fill="#F2B73F"/>
<path d="M7.25038 0.381096C7.04808 0.0167423 6.60018 -0.108026 6.24989 0.102308C5.89955 0.312643 5.77953 0.778508 5.98182 1.14281L6.78749 2.59408C6.99037 2.95955 7.43866 3.08259 7.78797 2.87287C8.13831 2.66253 8.25833 2.19667 8.05604 1.83237L7.25038 0.381096Z" fill="#F2B73F"/>
<path d="M24.2676 10.5989H22.6562C22.2518 10.5989 21.9238 10.94 21.9238 11.3607C21.9238 11.7813 22.2518 12.1224 22.6562 12.1224H24.2676C24.6721 12.1224 25 11.7813 25 11.3607C25 10.94 24.6721 10.5989 24.2676 10.5989Z" fill="#F19637"/>
<path d="M23.3253 4.86065C23.123 4.4963 22.6751 4.37153 22.3248 4.58186L20.9293 5.41975C20.579 5.63009 20.459 6.09595 20.6613 6.46026C20.8641 6.82573 21.3124 6.94877 21.6618 6.73905L23.0572 5.90116C23.4076 5.69082 23.5276 5.22495 23.3253 4.86065Z" fill="#F19637"/>
<path d="M18.7501 0.102316C18.3998 -0.108173 17.9518 0.0167491 17.7496 0.381106L16.944 1.83239C16.7417 2.19669 16.8617 2.66256 17.212 2.8729C17.5608 3.08237 18.0094 2.95999 18.2125 2.59411L19.0182 1.14283C19.2205 0.778521 19.1005 0.312703 18.7501 0.102316Z" fill="#F19637"/>
</svg>
