<svg width="24" height="24" viewBox="0 0 24 24" fill="none" xmlns="http://www.w3.org/2000/svg">
<path d="M11.7207 6.65386H7.41964C6.67734 6.65386 6.07349 6.05 6.07349 5.3077V4.34615C6.07349 3.60385 6.67734 3 7.41964 3H11.7207C12.463 3 13.0668 3.60385 13.0668 4.34615V5.3077C13.0668 6.05 12.4628 6.65386 11.7207 6.65386ZM7.41964 4.15383C7.31359 4.15383 7.22733 4.2401 7.22733 4.34615V5.3077C7.22733 5.41374 7.31359 5.50001 7.41964 5.50001H11.7207C11.8267 5.50001 11.913 5.41374 11.913 5.3077V4.34615C11.913 4.2401 11.8267 4.15383 11.7207 4.15383H7.41964Z" fill="white"/>
<path d="M14.7399 21.0001H4.3617C3.61085 21.0001 3 20.3968 3 19.6551V5.63415C3 4.90268 3.61085 4.30762 4.3617 4.30762H6.6503V5.46145H4.3617C4.26128 5.46145 4.15386 5.53082 4.15386 5.63412V19.6551C4.15386 19.7551 4.2529 19.8462 4.3617 19.8462H14.7399C14.8513 19.8462 14.9097 19.75 14.9097 19.6551V5.63412C14.9097 5.52766 14.8448 5.46145 14.7399 5.46145H12.4516V4.30762H14.7399C15.4821 4.30762 16.0636 4.8903 16.0636 5.63415V19.6551C16.0636 20.4093 15.4821 21.0001 14.7399 21.0001Z" fill="white"/>
<path d="M8.11019 11.6541H5.65138C5.3327 11.6541 5.07446 11.3958 5.07446 11.0772V8.61561C5.07446 8.29693 5.33271 8.0387 5.65138 8.0387H8.11019C8.42887 8.0387 8.68711 8.29694 8.68711 8.61561V11.0772C8.68711 11.3958 8.42872 11.6541 8.11019 11.6541ZM6.2283 10.5002H7.53324V9.19253H6.2283V10.5002Z" fill="white"/>
<path d="M9.76208 10.423H13.6422V11.5768H9.76208V10.423Z" fill="white"/>
<path d="M9.76208 8.11523H13.6422V9.26907H9.76208V8.11523Z" fill="white"/>
<path d="M7.68762 12.8463H13.6425V14.0001H7.68762V12.8463Z" fill="white"/>
<path d="M5.34399 12.8463H6.61187V14.0001H5.34399V12.8463Z" fill="white"/>
<path d="M7.68762 15.1539H13.6425V16.3078H7.68762V15.1539Z" fill="white"/>
<path d="M5.34399 15.1539H6.61187V16.3078H5.34399V15.1539Z" fill="white"/>
<path d="M7.68762 17.4614H13.6425V18.6153H7.68762V17.4614Z" fill="white"/>
<path d="M5.34399 17.4614H6.61187V18.6153H5.34399V17.4614Z" fill="white"/>
<path d="M19.0792 20.8954C18.8752 20.8954 18.6864 20.7876 18.5825 20.6121L17.2186 18.3043C17.1662 18.2155 17.1384 18.1141 17.1384 18.0108V4.45117C17.1384 3.71478 17.7447 3.1156 18.49 3.1156H19.6558C20.4081 3.1156 21.02 3.71478 21.02 4.45117V18.0108C21.02 18.1141 20.9923 18.2155 20.9398 18.3043L19.576 20.6121C19.4721 20.7877 19.2832 20.8954 19.0792 20.8954H19.0792ZM18.2923 17.8531L19.0792 19.1847L19.8662 17.8531L19.866 4.451C19.866 4.35416 19.7677 4.26927 19.6556 4.26927H18.4898C18.379 4.26927 18.2921 4.34908 18.2921 4.451L18.2923 17.8531Z" fill="white"/>
<path d="M17.7146 5.26929H20.4423V6.42312H17.7146V5.26929Z" fill="white"/>
<path d="M20.0493 17.6109C19.4833 17.1276 18.6619 17.1276 18.0961 17.6109L17.3469 16.7334C18.3469 15.8796 19.7986 15.8796 20.7986 16.7334L20.0493 17.6109Z" fill="white"/>
</svg>
