<svg width="383" height="78" viewBox="0 0 383 78" fill="none" xmlns="http://www.w3.org/2000/svg">
<path d="M189.045 21.5921C191.685 21.5695 194.234 20.6084 196.242 18.8775L199.779 24.5888C196.78 27.3833 192.836 28.9118 188.756 28.8601C180.335 28.8601 173.985 22.6526 173.985 14.4797C173.985 6.30687 180.335 0.109122 188.756 0.109122C192.836 0.0573565 196.78 1.58586 199.779 4.38041L196.242 10.0917C194.233 8.36359 191.684 7.40589 189.045 7.38686C188.117 7.3565 187.192 7.52005 186.329 7.86728C185.467 8.2145 184.684 8.73791 184.031 9.4047C183.378 10.0715 182.868 10.8673 182.534 11.7423C182.2 12.6172 182.048 13.5525 182.088 14.4895C182.048 15.4264 182.2 16.3617 182.534 17.2366C182.868 18.1116 183.378 18.9074 184.031 19.5742C184.684 20.241 185.467 20.7644 186.329 21.1116C187.192 21.4589 188.117 21.6224 189.045 21.5921Z" fill="#3354A3"/>
<path d="M207.397 28.4503V0.516602H229.933V7.37596H214.845V11.0732H226.966V17.5239H214.845V21.5812H229.933V28.4503H207.397Z" fill="#3354A3"/>
<path d="M238.847 0.516602H252.847C258.907 0.516602 263.137 3.59115 263.137 9.8862C263.144 11.7105 262.572 13.4891 261.503 14.9602C260.435 16.4314 258.927 17.5176 257.202 18.0591L265.498 28.4503H256.633L248.829 18.7207H246.661V28.4503H238.847V0.516602ZM246.661 7.32731V13.0386H252.115C252.499 13.0716 252.885 13.0224 253.249 12.894C253.613 12.7657 253.946 12.5612 254.226 12.2939C254.506 12.0266 254.727 11.7025 254.875 11.3429C255.022 10.9833 255.093 10.5963 255.082 10.2073C255.104 9.81143 255.042 9.41542 254.899 9.04596C254.757 8.6765 254.538 8.34218 254.257 8.06554C253.975 7.78891 253.639 7.57639 253.269 7.44233C252.9 7.30827 252.506 7.25578 252.115 7.2884L246.661 7.32731Z" fill="#3354A3"/>
<path d="M283.334 0.108019C285.222 0.0599287 287.1 0.400023 288.854 1.10764C290.608 1.81525 292.201 2.8756 293.537 4.22426C294.872 5.57291 295.922 7.18171 296.623 8.95288C297.324 10.724 297.661 12.6206 297.613 14.5273C297.613 18.3412 296.113 21.9989 293.442 24.6957C290.771 27.3925 287.149 28.9076 283.372 28.9076C279.595 28.9076 275.973 27.3925 273.302 24.6957C270.632 21.9989 269.131 18.3412 269.131 14.5273C269.08 12.6262 269.412 10.7344 270.106 8.96667C270.801 7.19894 271.844 5.59213 273.172 4.24373C274.5 2.89533 276.085 1.83346 277.832 1.12253C279.579 0.411608 281.451 0.0664563 283.334 0.108019ZM283.334 21.5131C284.225 21.5195 285.108 21.3422 285.929 20.9922C286.749 20.6422 287.491 20.1267 288.108 19.4774C288.725 18.828 289.204 18.0584 289.516 17.2157C289.829 16.3729 289.967 15.4747 289.924 14.5759C289.924 10.6354 287.245 7.59007 283.334 7.59007C279.422 7.59007 276.743 10.6257 276.743 14.5759C276.703 15.474 276.843 16.371 277.157 17.2125C277.47 18.0541 277.949 18.8225 278.565 19.4713C279.182 20.12 279.922 20.6355 280.742 20.9865C281.562 21.3375 282.443 21.5167 283.334 21.5131Z" fill="#3354A3"/>
<path d="M305.754 19.5352C308.298 21.2941 311.295 22.2646 314.377 22.3276C316.651 22.3276 318 21.6271 318 20.119C318 19.146 317.191 18.5136 315.476 18.0174L311.082 16.7428C306.409 15.3807 304.048 13.0066 304.048 8.95913C304.048 4.03596 307.902 0.202499 315.273 0.202499C318.74 0.227748 322.162 0.983308 325.323 2.42085L323.126 8.9494C320.607 7.57741 317.806 6.81782 314.946 6.73105C312.836 6.73105 311.94 7.43158 311.94 8.57967C311.94 9.48453 312.518 9.93209 313.973 10.3894L318.732 11.7904C323.897 13.3472 325.968 15.8963 325.968 19.6811C325.968 25.1005 321.372 28.9242 314.252 28.9242C310.676 28.8836 307.151 28.0569 303.923 26.5016L305.754 19.5352Z" fill="#3354A3"/>
<path d="M170.546 28.4503L160.284 0.516602H151.092L140.677 28.4503H148.009C149.368 26.3748 151.323 24.7685 153.612 23.8468C155.901 22.9251 158.414 22.7321 160.814 23.2936L162.635 28.4503H170.546ZM158.116 17.2515C155.943 17.2655 153.79 17.6844 151.767 18.4872L155.544 8.31973L158.723 17.3099H158.136" fill="#3354A3"/>
<path d="M267.34 70.8019C264.729 70.8193 262.158 70.1486 259.882 68.856C262.027 67.5988 263.796 65.7816 265.005 63.5953C266.214 61.4091 266.818 58.9344 266.752 56.4313C266.752 52.6174 265.252 48.9597 262.581 46.2629C259.911 43.5661 256.288 42.051 252.511 42.051C248.735 42.051 245.112 43.5661 242.442 46.2629C239.771 48.9597 238.271 52.6174 238.271 56.4313C238.223 58.3077 238.55 60.1746 239.232 61.9206C239.914 63.6666 240.938 65.2558 242.242 66.5935C243.546 67.9311 245.103 68.9897 246.821 69.7061C248.54 70.4225 250.383 70.7819 252.242 70.763C254.222 72.7656 256.574 74.3542 259.163 75.4377C261.752 76.5213 264.528 77.0785 267.33 77.0775H268.294V70.7727H267.33L267.34 70.8019ZM245.931 56.4313C245.931 52.5395 248.657 49.4455 252.473 49.4455C256.288 49.4455 259.063 52.5395 259.063 56.4313C259.063 60.3232 256.423 63.3783 252.473 63.3783C251.586 63.3753 250.709 63.191 249.894 62.8365C249.079 62.482 248.344 61.9646 247.733 61.3154C247.121 60.6663 246.647 59.8989 246.337 59.0595C246.027 58.2201 245.889 57.3261 245.931 56.4313Z" fill="#3354A3"/>
<path d="M176.644 42.4425H190.634C196.695 42.4425 200.925 45.517 200.925 51.8121C200.932 53.6364 200.359 55.4149 199.291 56.8861C198.222 58.3573 196.715 59.4435 194.989 59.9849L203.305 70.3761H194.431L186.626 60.6465H184.468V70.3761H176.654L176.644 42.4425ZM184.458 49.2532V54.9645H189.912C190.297 54.9872 190.683 54.9302 191.045 54.7969C191.408 54.6637 191.74 54.457 192.021 54.1896C192.301 53.9222 192.525 53.5997 192.678 53.2419C192.831 52.8841 192.91 52.4985 192.91 52.1088C192.91 51.7191 192.831 51.3336 192.678 50.9757C192.525 50.6179 192.301 50.2954 192.021 50.028C191.74 49.7606 191.408 49.554 191.045 49.4207C190.683 49.2875 190.297 49.2305 189.912 49.2532H184.458Z" fill="#3354A3"/>
<path d="M209.634 70.3761V42.4425H232.171V49.3018H217.082V52.9991H229.203V59.4498H217.082V63.5168H232.171V70.3761H209.634Z" fill="#3354A3"/>
<path d="M281.56 57.7179C281.56 61.3665 283.391 63.5557 286.85 63.5557C290.309 63.5557 292.217 61.2984 292.217 57.7179V42.4425H300.031V58.2531C300.031 64.9859 295.31 70.775 286.85 70.775C278.39 70.775 273.756 65.5211 273.756 58.2531V42.4425H281.56V57.7179Z" fill="#3354A3"/>
<path d="M316.933 42.4425H309.129V70.3761H316.933V42.4425Z" fill="#3354A3"/>
<path d="M326.403 42.4425H340.644C346.213 42.4425 350.934 45.77 350.934 52.9212C350.934 59.4109 346.213 63.2249 340.644 63.2249H334.217V70.3761H326.403V42.4425ZM334.217 49.2532V56.4336H339.382C340.289 56.3858 341.143 55.9883 341.768 55.3229C342.394 54.6576 342.743 53.7753 342.743 52.858C342.743 51.9407 342.394 51.0584 341.768 50.3931C341.143 49.7277 340.289 49.3302 339.382 49.2824L334.217 49.2532Z" fill="#3354A3"/>
<path d="M170.546 70.3761L160.284 42.4425H151.092L140.677 70.3761H148.009C149.366 68.287 151.325 66.6692 153.622 65.7416C155.92 64.8141 158.444 64.6216 160.853 65.1903L162.674 70.3469L170.546 70.3761ZM158.116 59.1774C155.935 59.1754 153.773 59.5811 151.738 60.3741L155.515 50.197L158.694 59.1871H158.107" fill="#3354A3"/>
<path d="M382.184 70.3761L371.922 42.4425H362.73L352.324 70.3761H359.657C361.011 68.2943 362.964 66.6813 365.253 65.7542C367.543 64.827 370.058 64.6302 372.462 65.1903L374.293 70.3469L382.184 70.3761ZM369.754 59.1774C367.573 59.1758 365.411 59.5816 363.376 60.3741L367.153 50.197L370.332 59.1871H369.745" fill="#3354A3"/>
<path d="M45.2858 69.0801C45.282 69.2488 45.3111 69.4165 45.3715 69.5738C45.4318 69.7311 45.5223 69.8749 45.6378 69.9969C45.7532 70.1189 45.8913 70.2167 46.0442 70.2847C46.197 70.3528 46.3617 70.3898 46.5287 70.3936H58.1296V56.9084C53.8166 56.9735 49.5181 57.4294 45.2858 58.2705V69.0801ZM118.832 68.3893L71.7345 0.505948C71.6164 0.348103 71.4634 0.220209 71.2878 0.132393C71.1122 0.0445778 70.9188 -0.000746653 70.7228 9.30316e-06H60.866V39.1616C65.1796 39.213 69.4844 39.5706 73.7483 40.2319V25.5499L88.2879 46.4977C69.6232 40.0439 49.3627 40.0439 30.698 46.4977L45.2858 25.5694V40.2319C49.5496 39.5697 53.8544 39.212 58.1681 39.1616V9.30316e-06H48.2727C48.0847 0.00521457 47.9002 0.0534548 47.7333 0.141094C47.5664 0.228733 47.4214 0.353485 47.3092 0.505948L0.202477 68.399C0.0671251 68.5996 -0.003546 68.8374 0.000136968 69.0801C9.94714e-05 69.4251 0.134495 69.7563 0.374282 70.0021C0.614069 70.2478 0.939993 70.3885 1.28162 70.3936H13.4028C13.7892 70.4041 14.165 70.2649 14.453 70.0044C27.3427 59.8804 43.2066 54.3838 59.5363 54.3838C75.8661 54.3838 91.73 59.8804 104.62 70.0044C104.889 70.242 105.227 70.3853 105.583 70.413H117.695C117.867 70.4144 118.039 70.3807 118.199 70.3139C118.358 70.2472 118.503 70.1487 118.624 70.0244C118.746 69.9001 118.841 69.7525 118.905 69.5903C118.968 69.428 118.999 69.2546 118.995 69.0801C119.007 68.8349 118.939 68.5926 118.803 68.3893H118.832ZM60.866 70.413H72.4957C72.6649 70.4093 72.8316 70.3717 72.9863 70.3025C73.141 70.2334 73.2805 70.134 73.397 70.01C73.5134 69.8861 73.6044 69.7402 73.6647 69.5805C73.725 69.4209 73.7534 69.2508 73.7483 69.0801V58.2802C69.5042 57.4299 65.1924 56.9708 60.866 56.9084V70.413Z" fill="#3354A3"/>
</svg>
