<svg width="28" height="28" viewBox="0 0 28 28" fill="none" xmlns="http://www.w3.org/2000/svg">
<path d="M14 0C6.26803 0 0 6.26803 0 14C0 21.732 6.26803 28 14 28C21.7283 27.9913 27.9913 21.7283 28 14C28 6.26803 21.732 0 14 0ZM14 27.0667C6.78347 27.0667 0.933333 21.2165 0.933333 14C0.933333 6.78347 6.78347 0.933333 14 0.933333C21.2131 0.941558 27.0584 6.78691 27.0667 14C27.0667 21.2165 21.2165 27.0667 14 27.0667Z" fill="#0A42A3"/>
<path d="M21.5899 9.95032L14 17.5402L6.41014 9.95032C6.22931 9.77567 5.9426 9.77567 5.76176 9.95032C5.57638 10.1293 5.57125 10.4248 5.75027 10.6102L13.6701 18.53C13.7576 18.6175 13.8762 18.6667 14 18.6667C14.1238 18.6667 14.2424 18.6175 14.3299 18.53L22.2497 10.6102C22.2536 10.6065 22.2574 10.6026 22.2612 10.5988C22.4402 10.4134 22.4351 10.118 22.2497 9.93889C22.0644 9.75981 21.769 9.76494 21.5899 9.95032Z" fill="#0A42A3"/>
</svg>
