<svg width="74" height="61" viewBox="0 0 74 61" fill="none" xmlns="http://www.w3.org/2000/svg">
<path d="M19.032 14.4928L15.3293 28.3117L5.95208 21.9078C7.45735 16.2901 13.325 12.9636 19.032 14.4928Z" fill="#55ADEE"/>
<path d="M16.3021 24.6811L13.5721 34.8694C7.86522 33.3402 4.44677 27.5257 5.95204 21.9079L16.3021 24.6812L16.3021 24.6811Z" fill="#0A43A5"/>
<path d="M31.1493 51.5093L52.0788 57.1173L55.5382 44.2068L51.9226 43.238L49.4169 52.5894L35.7185 48.919L36.9444 44.3437L33.3289 43.3749L31.1493 51.5093Z" fill="#453F81"/>
<path d="M29.4019 7.99433L59.9327 25.9768L55.7778 35.2586L37.8989 35.9278L20.3618 29.1007L29.4019 7.99433Z" fill="#D6E8FD"/>
<path d="M55.7778 35.2586L51.413 45.0089L19.2434 45.9065L24.3527 26.8383L55.7778 35.2586Z" fill="#B6DCFE"/>
<path d="M20.576 2.79594L29.402 7.99432L24.3527 26.8383L18.6128 29.1917L14.8184 24.2836L20.576 2.79594Z" fill="#EDF5FF"/>
<path d="M24.3527 26.8383L19.2434 45.9066L8.94761 46.1938L14.8184 24.2836L24.3527 26.8383Z" fill="#D6E8FD"/>
<path d="M60.1513 25.5107C65.8583 27.0399 69.2766 32.8545 67.7713 38.4723L60.1106 39.8061L54.1431 34.8206L56.873 24.6324L60.1512 25.5108L60.1513 25.5107Z" fill="#EDF5FF"/>
<path d="M67.7713 38.4722C66.2661 44.09 60.3985 47.4163 54.6914 45.8871L51.413 45.0087L54.143 34.8204L67.7713 38.4722Z" fill="#D6E8FD"/>
</svg>
